<?xml version="1.0" encoding="UTF-8" standalone="no"?>
<svg
   xmlns:dc="http://purl.org/dc/elements/1.1/"
   xmlns:cc="http://creativecommons.org/ns#"
   xmlns:rdf="http://www.w3.org/1999/02/22-rdf-syntax-ns#"
   xmlns:svg="http://www.w3.org/2000/svg"
   xmlns="http://www.w3.org/2000/svg"
   xmlns:sodipodi="http://sodipodi.sourceforge.net/DTD/sodipodi-0.dtd"
   xmlns:inkscape="http://www.inkscape.org/namespaces/inkscape"
   width="1507px"
   height="672px"
   viewBox="0 0 1507 672"
   version="1.1"
   id="svg1240"
   sodipodi:docname="3+.svg"
   inkscape:version="0.92.3 (2405546, 2018-03-11)">
  <metadata
     id="metadata1244">
    <rdf:RDF>
      <cc:Work
         rdf:about="">
        <dc:format>image/svg+xml</dc:format>
        <dc:type
           rdf:resource="http://purl.org/dc/dcmitype/StillImage" />
        <dc:title>3</dc:title>
      </cc:Work>
    </rdf:RDF>
  </metadata>
  <sodipodi:namedview
     pagecolor="#ffffff"
     bordercolor="#666666"
     borderopacity="1"
     objecttolerance="10"
     gridtolerance="10"
     guidetolerance="10"
     inkscape:pageopacity="0"
     inkscape:pageshadow="2"
     inkscape:window-width="1853"
     inkscape:window-height="1025"
     id="namedview1242"
     showgrid="false"
     inkscape:zoom="1.2959714"
     inkscape:cx="676.55278"
     inkscape:cy="328.67852"
     inkscape:window-x="67"
     inkscape:window-y="27"
     inkscape:window-maximized="1"
     inkscape:current-layer="g1238" />
  <title
     id="title1040">3</title>
  <desc
     id="desc1042">
Creator: GL2PS 1.4.0, (C) 1999-2017 C. Geuzaine
For: Gmsh
CreationDate: Wed Feb  8 19:57:54 2023
</desc>
  <defs
     id="defs1044" />
  <g
     id="g1238">
    <circle
       fill="#5a5a5a"
       cx="273.5"
       cy="576"
       r="2"
       id="circle1046" />
    <circle
       fill="#5a5a5a"
       cx="273.5"
       cy="96"
       r="2"
       id="circle1048" />
    <circle
       fill="#5a5a5a"
       cx="1233.5"
       cy="96"
       r="2"
       id="circle1050" />
    <circle
       fill="#5a5a5a"
       cx="1233.5"
       cy="576"
       r="2"
       id="circle1052" />
    <polyline
       fill="none"
       stroke="#0000ff"
       stroke-width="2"
       stroke-linecap="butt"
       stroke-linejoin="miter"
       points="273.5,576 273.5,96 1233.5,96 1233.5,576 273.5,576"
       id="polyline1054" />
    <polyline
       fill="none"
       stroke="#00ff84"
       stroke-width="1"
       stroke-linecap="butt"
       stroke-linejoin="miter"
       points="273.5,576 273.5,456 273.5,336 273.5,216 273.5,96"
       id="polyline1056" />
    <polyline
       fill="none"
       stroke="#ffa000"
       stroke-width="1"
       stroke-linecap="butt"
       stroke-linejoin="miter"
       points="273.5,96 393.5,96 513.5,96 633.5,96 753.5,96 873.5,96 993.5,96 1113.5,96 1233.5,96"
       id="polyline1058" />
    <polyline
       fill="none"
       stroke="#00ffc0"
       stroke-width="1"
       stroke-linecap="butt"
       stroke-linejoin="miter"
       points="1233.5,96 1233.5,216 1233.5,336 1233.5,456 1233.5,576"
       id="polyline1060" />
    <polyline
       fill="none"
       stroke="#ffc800"
       stroke-width="1"
       stroke-linecap="butt"
       stroke-linejoin="miter"
       points="1233.5,576 1113.5,576 993.5,576 873.5,576 753.5,576 633.5,576 513.5,576 393.5,576 273.5,576"
       id="polyline1062" />
    <polyline
       fill="none"
       stroke="#004c27"
       stroke-width="1"
       stroke-linecap="butt"
       stroke-linejoin="miter"
       points="454.009,474.387 380.875,387.367 512.864,382.164 454.009,474.387"
       id="polyline1070" />
    <polyline
       fill="none"
       stroke="#004c27"
       stroke-width="1"
       stroke-linecap="butt"
       stroke-linejoin="miter"
       points="1233.5,336 1233.5,456 1138.62,403.589 1233.5,336"
       id="polyline1080" />
    <polyline
       fill="none"
       stroke="#004c27"
       stroke-width="1"
       stroke-linecap="butt"
       stroke-linejoin="miter"
       points="573.585,472.462 512.864,382.164 633.514,373.303 573.585,472.462"
       id="polyline1082" />
    <polyline
       fill="none"
       stroke="#004c27"
       stroke-width="1"
       stroke-linecap="butt"
       stroke-linejoin="miter"
       points="693.5,472.077 573.585,472.462 633.514,373.303 693.5,472.077"
       id="polyline1084" />
    <polyline
       fill="none"
       stroke="#004c27"
       stroke-width="1"
       stroke-linecap="butt"
       stroke-linejoin="miter"
       points="753.5,576 633.5,576 693.5,472.077 753.5,576"
       id="polyline1088" />
    <polyline
       fill="none"
       stroke="#004c27"
       stroke-width="1"
       stroke-linecap="butt"
       stroke-linejoin="miter"
       points="273.5,336 273.5,216 368.385,268.411 273.5,336"
       id="polyline1092" />
    <polyline
       fill="none"
       stroke="#004c27"
       stroke-width="1"
       stroke-linecap="butt"
       stroke-linejoin="miter"
       points="633.5,576 573.585,472.462 693.5,472.077 633.5,576"
       id="polyline1094" />
    <polyline
       fill="none"
       stroke="#004c27"
       stroke-width="1"
       stroke-linecap="butt"
       stroke-linejoin="miter"
       points="454.009,474.387 512.864,382.164 573.585,472.462 454.009,474.387"
       id="polyline1096" />
    <polyline
       fill="none"
       stroke="#004c27"
       stroke-width="1"
       stroke-linecap="butt"
       stroke-linejoin="miter"
       points="513.5,576 454.009,474.387 573.585,472.462 513.5,576"
       id="polyline1100" />
    <polyline
       fill="none"
       stroke="#004c27"
       stroke-width="1"
       stroke-linecap="butt"
       stroke-linejoin="miter"
       points="873.5,576 753.5,576 807.7,474.855 873.5,576"
       id="polyline1102" />
    <polyline
       fill="none"
       stroke="#004c27"
       stroke-width="1"
       stroke-linecap="butt"
       stroke-linejoin="miter"
       points="993.5,96 1113.5,96 1052.99,197.613 993.5,96 1052.99,197.613 933.5,199.923 993.5,96"
       id="polyline1104" />
    <polyline
       fill="none"
       stroke="#004c27"
       stroke-width="1"
       stroke-linecap="butt"
       stroke-linejoin="miter"
       points="873.5,96 933.5,199.923 801.023,202.058 873.5,96"
       id="polyline1106" />
    <polyline
       fill="none"
       stroke="#004c27"
       stroke-width="1"
       stroke-linecap="butt"
       stroke-linejoin="miter"
       points="633.5,576 513.5,576 573.585,472.462 633.5,576"
       id="polyline1108" />
    <polyline
       fill="none"
       stroke="#004c27"
       stroke-width="1"
       stroke-linecap="butt"
       stroke-linejoin="miter"
       points="753.5,96 873.5,96 801.023,202.058 753.5,96"
       id="polyline1110" />
    <polyline
       fill="none"
       stroke="#004c27"
       stroke-width="1"
       stroke-linecap="butt"
       stroke-linejoin="miter"
       points="513.5,576 393.5,576 454.009,474.387 513.5,576"
       id="polyline1112" />
    <polyline
       fill="none"
       stroke="#004c27"
       stroke-width="1"
       stroke-linecap="butt"
       stroke-linejoin="miter"
       points="693.5,472.077 633.514,373.303 750.898,370.096 693.5,472.077"
       id="polyline1114" />
    <polyline
       fill="none"
       stroke="#004c27"
       stroke-width="1"
       stroke-linecap="butt"
       stroke-linejoin="miter"
       points="873.5,576 807.7,474.855 933.967,467.945 873.5,576"
       id="polyline1116" />
    <polyline
       fill="none"
       stroke="#004c27"
       stroke-width="1"
       stroke-linecap="butt"
       stroke-linejoin="miter"
       points="753.5,576 693.5,472.077 807.7,474.855 753.5,576"
       id="polyline1118" />
    <polyline
       fill="none"
       stroke="#004c27"
       stroke-width="1"
       stroke-linecap="butt"
       stroke-linejoin="miter"
       points="873.5,96 993.5,96 933.5,199.923 873.5,96"
       id="polyline1120" />
    <polyline
       fill="none"
       stroke="#004c27"
       stroke-width="1"
       stroke-linecap="butt"
       stroke-linejoin="miter"
       points="513.5,96 633.5,96 573.5,199.923 513.5,96"
       id="polyline1124" />
    <polyline
       fill="none"
       stroke="#004c27"
       stroke-width="1"
       stroke-linecap="butt"
       stroke-linejoin="miter"
       points="993.5,576 873.5,576 933.967,467.945 993.5,576"
       id="polyline1126" />
    <polyline
       fill="none"
       stroke="#004c27"
       stroke-width="1"
       stroke-linecap="butt"
       stroke-linejoin="miter"
       points="693.5,472.077 750.898,370.096 807.7,474.855 693.5,472.077"
       id="polyline1128" />
    <polyline
       fill="none"
       stroke="#004c27"
       stroke-width="1"
       stroke-linecap="butt"
       stroke-linejoin="miter"
       points="933.967,467.945 1038.45,384.019 1060.61,482.618 933.967,467.945"
       id="polyline1130" />
    <polyline
       fill="none"
       stroke="#004c27"
       stroke-width="1"
       stroke-linecap="butt"
       stroke-linejoin="miter"
       points="933.967,467.945 937.787,364.013 1038.45,384.019 933.967,467.945"
       id="polyline1134" />
    <polyline
       fill="none"
       stroke="#004c27"
       stroke-width="1"
       stroke-linecap="butt"
       stroke-linejoin="miter"
       points="1233.5,216 1233.5,336 1126.13,284.7 1233.5,216"
       id="polyline1140" />
    <polyline
       fill="none"
       stroke="#004c27"
       stroke-width="1"
       stroke-linecap="butt"
       stroke-linejoin="miter"
       points="1113.5,576 993.5,576 1060.61,482.618 1113.5,576"
       id="polyline1142" />
    <polyline
       fill="none"
       stroke="#004c27"
       stroke-width="1"
       stroke-linecap="butt"
       stroke-linejoin="miter"
       points="273.5,456 273.5,336 380.875,387.367 273.5,456"
       id="polyline1144" />
    <polyline
       fill="none"
       stroke="#004c27"
       stroke-width="1"
       stroke-linecap="butt"
       stroke-linejoin="miter"
       points="393.5,96 513.5,96 446.464,188.694 393.5,96"
       id="polyline1146" />
    <polyline
       fill="none"
       stroke="#004c27"
       stroke-width="1"
       stroke-linecap="butt"
       stroke-linejoin="miter"
       points="1233.5,336 1138.62,403.589 1126.13,284.7 1233.5,336"
       id="polyline1148" />
    <polyline
       fill="none"
       stroke="#004c27"
       stroke-width="1"
       stroke-linecap="butt"
       stroke-linejoin="miter"
       points="993.5,576 933.967,467.945 1060.61,482.618 993.5,576"
       id="polyline1150" />
    <polyline
       fill="none"
       stroke="#004c27"
       stroke-width="1"
       stroke-linecap="butt"
       stroke-linejoin="miter"
       points="273.5,336 368.385,268.411 380.875,387.367 273.5,336"
       id="polyline1152" />
    <polyline
       fill="none"
       stroke="#004c27"
       stroke-width="1"
       stroke-linecap="butt"
       stroke-linejoin="miter"
       points="513.5,96 573.5,199.923 446.464,188.694 513.5,96"
       id="polyline1154" />
    <polyline
       fill="none"
       stroke="#004c27"
       stroke-width="1"
       stroke-linecap="butt"
       stroke-linejoin="miter"
       points="753.5,96 801.023,202.058 693.5,169.416 753.5,96"
       id="polyline1158" />
    <polyline
       fill="none"
       stroke="#004c27"
       stroke-width="1"
       stroke-linecap="butt"
       stroke-linejoin="miter"
       points="633.5,96 693.5,169.416 573.5,199.923 633.5,96"
       id="polyline1160" />
    <polyline
       fill="none"
       stroke="#004c27"
       stroke-width="1"
       stroke-linecap="butt"
       stroke-linejoin="miter"
       points="1233.5,576 1113.5,576 1145.65,488.154 1233.5,576"
       id="polyline1162" />
    <polyline
       fill="none"
       stroke="#004c27"
       stroke-width="1"
       stroke-linecap="butt"
       stroke-linejoin="miter"
       points="1233.5,96 1233.5,216 1145.65,183.846 1233.5,96"
       id="polyline1164" />
    <polyline
       fill="none"
       stroke="#004c27"
       stroke-width="1"
       stroke-linecap="butt"
       stroke-linejoin="miter"
       points="273.5,576 361.346,488.154 393.5,576 273.5,576 273.5,456 361.346,488.154 273.5,576"
       id="polyline1166" />
    <polyline
       fill="none"
       stroke="#004c27"
       stroke-width="1"
       stroke-linecap="butt"
       stroke-linejoin="miter"
       points="1233.5,96 1145.65,183.846 1113.5,96 1233.5,96"
       id="polyline1168" />
    <polyline
       fill="none"
       stroke="#004c27"
       stroke-width="1"
       stroke-linecap="butt"
       stroke-linejoin="miter"
       points="273.5,96 393.5,96 361.346,183.846 273.5,96 361.346,183.846 273.5,216 273.5,96"
       id="polyline1170" />
    <polyline
       fill="none"
       stroke="#004c27"
       stroke-width="1"
       stroke-linecap="butt"
       stroke-linejoin="miter"
       points="1233.5,576 1145.65,488.154 1233.5,456 1233.5,576"
       id="polyline1172" />
    <polyline
       fill="none"
       stroke="#004c27"
       stroke-width="1"
       stroke-linecap="butt"
       stroke-linejoin="miter"
       points="933.967,467.945 807.7,474.855 845.346,381.073 933.967,467.945 845.346,381.073 937.787,364.013 933.967,467.945"
       id="polyline1174" />
    <polyline
       fill="none"
       stroke="#004c27"
       stroke-width="1"
       stroke-linecap="butt"
       stroke-linejoin="miter"
       points="1233.5,216 1126.13,284.7 1145.65,183.846 1233.5,216"
       id="polyline1176" />
    <polyline
       fill="none"
       stroke="#004c27"
       stroke-width="1"
       stroke-linecap="butt"
       stroke-linejoin="miter"
       points="273.5,456 380.875,387.367 361.346,488.154 273.5,456"
       id="polyline1178" />
    <polyline
       fill="none"
       stroke="#004c27"
       stroke-width="1"
       stroke-linecap="butt"
       stroke-linejoin="miter"
       points="1113.5,576 1060.61,482.618 1145.65,488.154 1113.5,576"
       id="polyline1180" />
    <polyline
       fill="none"
       stroke="#004c27"
       stroke-width="1"
       stroke-linecap="butt"
       stroke-linejoin="miter"
       points="393.5,96 446.464,188.694 361.346,183.846 393.5,96"
       id="polyline1182" />
    <polyline
       fill="none"
       stroke="#004c27"
       stroke-width="1"
       stroke-linecap="butt"
       stroke-linejoin="miter"
       points="633.5,96 753.5,96 693.5,169.416 633.5,96"
       id="polyline1188" />
    <polyline
       fill="none"
       stroke="#004c27"
       stroke-width="1"
       stroke-linecap="butt"
       stroke-linejoin="miter"
       points="1233.5,456 1145.65,488.154 1138.62,403.589 1233.5,456"
       id="polyline1190" />
    <polyline
       fill="none"
       stroke="#004c27"
       stroke-width="1"
       stroke-linecap="butt"
       stroke-linejoin="miter"
       points="1113.5,96 1145.65,183.846 1052.99,197.613 1113.5,96"
       id="polyline1192" />
    <polyline
       fill="none"
       stroke="#004c27"
       stroke-width="1"
       stroke-linecap="butt"
       stroke-linejoin="miter"
       points="393.5,576 361.346,488.154 454.009,474.387 393.5,576"
       id="polyline1194" />
    <polyline
       fill="none"
       stroke="#004c27"
       stroke-width="1"
       stroke-linecap="butt"
       stroke-linejoin="miter"
       points="273.5,216 361.346,183.846 368.385,268.411 273.5,216"
       id="polyline1196" />
    <polyline
       fill="none"
       stroke="#004c27"
       stroke-width="1"
       stroke-linecap="butt"
       stroke-linejoin="miter"
       points="750.898,370.096 845.346,381.073 807.7,474.855 750.898,370.096"
       id="polyline1202" />
    <polyline
       fill="none"
       stroke="#004c27"
       stroke-width="1"
       stroke-linecap="butt"
       stroke-linejoin="miter"
       points="1138.62,403.589 1145.65,488.154 1060.61,482.618 1138.62,403.589"
       id="polyline1204" />
    <polyline
       fill="none"
       stroke="#004c27"
       stroke-width="1"
       stroke-linecap="butt"
       stroke-linejoin="miter"
       points="454.009,474.387 361.346,488.154 380.875,387.367 454.009,474.387"
       id="polyline1210" />
    <polyline
       fill="none"
       stroke="#004c27"
       stroke-width="1"
       stroke-linecap="butt"
       stroke-linejoin="miter"
       points="1138.62,403.589 1060.61,482.618 1038.45,384.019 1138.62,403.589"
       id="polyline1216" />
    <text
       fill="#000000"
       x="1480"
       y="629"
       font-size="15"
       text-anchor="start"
       dy="0"
       font-family="Helvetica"
       id="text1226">X</text>
    <text
       fill="#000000"
       x="1450"
       y="599"
       font-size="15"
       text-anchor="start"
       dy="0"
       font-family="Helvetica"
       id="text1228">Y</text>
    <text
       fill="#000000"
       x="1450"
       y="629"
       font-size="15"
       text-anchor="start"
       dy="0"
       font-family="Helvetica"
       id="text1230">Z</text>
    <polyline
       fill="none"
       stroke="#000000"
       stroke-width="1"
       stroke-linecap="butt"
       stroke-linejoin="miter"
       points="1447,632 1477,632"
       id="polyline1232" />
    <polyline
       fill="none"
       stroke="#000000"
       stroke-width="1"
       stroke-linecap="butt"
       stroke-linejoin="miter"
       points="1447,632 1447,602"
       id="polyline1234" />
    <polyline
       fill="none"
       stroke="#000000"
       stroke-width="1"
       stroke-linecap="butt"
       stroke-linejoin="miter"
       points="1447,632 1447,632"
       id="polyline1236" />
  </g>
</svg>
