<?xml version="1.0" encoding="UTF-8" standalone="no"?>
<svg
   xmlns:dc="http://purl.org/dc/elements/1.1/"
   xmlns:cc="http://creativecommons.org/ns#"
   xmlns:rdf="http://www.w3.org/1999/02/22-rdf-syntax-ns#"
   xmlns:svg="http://www.w3.org/2000/svg"
   xmlns="http://www.w3.org/2000/svg"
   xmlns:sodipodi="http://sodipodi.sourceforge.net/DTD/sodipodi-0.dtd"
   xmlns:inkscape="http://www.inkscape.org/namespaces/inkscape"
   width="1507px"
   height="672px"
   viewBox="0 0 1507 672"
   version="1.1"
   id="svg1240"
   sodipodi:docname="4.svg"
   inkscape:version="0.92.3 (2405546, 2018-03-11)">
  <metadata
     id="metadata1244">
    <rdf:RDF>
      <cc:Work
         rdf:about="">
        <dc:format>image/svg+xml</dc:format>
        <dc:type
           rdf:resource="http://purl.org/dc/dcmitype/StillImage" />
        <dc:title>3</dc:title>
      </cc:Work>
    </rdf:RDF>
  </metadata>
  <sodipodi:namedview
     pagecolor="#ffffff"
     bordercolor="#666666"
     borderopacity="1"
     objecttolerance="10"
     gridtolerance="10"
     guidetolerance="10"
     inkscape:pageopacity="0"
     inkscape:pageshadow="2"
     inkscape:window-width="1853"
     inkscape:window-height="1025"
     id="namedview1242"
     showgrid="false"
     inkscape:zoom="1.2959714"
     inkscape:cx="1367.5628"
     inkscape:cy="328.67852"
     inkscape:window-x="67"
     inkscape:window-y="27"
     inkscape:window-maximized="1"
     inkscape:current-layer="g1238" />
  <title
     id="title1040">3</title>
  <desc
     id="desc1042">
Creator: GL2PS 1.4.0, (C) 1999-2017 C. Geuzaine
For: Gmsh
CreationDate: Wed Feb  8 19:57:54 2023
</desc>
  <defs
     id="defs1044" />
  <g
     id="g1238">
    <circle
       cx="273.5"
       cy="576"
       r="2"
       id="circle1046"
       fill="#5a5a5a" />
    <circle
       cx="273.5"
       cy="96"
       r="2"
       id="circle1048"
       fill="#5a5a5a" />
    <circle
       cx="1233.5"
       cy="96"
       r="2"
       id="circle1050"
       fill="#5a5a5a" />
    <circle
       cx="1233.5"
       cy="576"
       r="2"
       id="circle1052"
       fill="#5a5a5a" />
    <polyline
       points="273.5,576 273.5,96 1233.5,96 1233.5,576 273.5,576"
       id="polyline1054"
       stroke-linejoin="miter"
       stroke-linecap="butt"
       stroke-width="2"
       stroke="#0000ff"
       fill="none" />
    <polyline
       points="273.5,576 273.5,456 273.5,336 273.5,216 273.5,96"
       id="polyline1056"
       stroke-linejoin="miter"
       stroke-linecap="butt"
       stroke-width="1"
       stroke="#00ff84"
       fill="none" />
    <polyline
       points="273.5,96 393.5,96 513.5,96 633.5,96 753.5,96 873.5,96 993.5,96 1113.5,96 1233.5,96"
       id="polyline1058"
       stroke-linejoin="miter"
       stroke-linecap="butt"
       stroke-width="1"
       stroke="#ffa000"
       fill="none" />
    <polyline
       points="1233.5,96 1233.5,216 1233.5,336 1233.5,456 1233.5,576"
       id="polyline1060"
       stroke-linejoin="miter"
       stroke-linecap="butt"
       stroke-width="1"
       stroke="#00ffc0"
       fill="none" />
    <polyline
       points="1233.5,576 1113.5,576 993.5,576 873.5,576 753.5,576 633.5,576 513.5,576 393.5,576 273.5,576"
       id="polyline1062"
       stroke-linejoin="miter"
       stroke-linecap="butt"
       stroke-width="1"
       stroke="#ffc800"
       fill="none" />
    <polyline
       points="454.009,474.387 380.875,387.367 512.864,382.164 454.009,474.387"
       id="polyline1070"
       stroke-linejoin="miter"
       stroke-linecap="butt"
       stroke-width="1"
       stroke="#004c27"
       fill="none" />
    <polyline
       points="1233.5,336 1233.5,456 1138.62,403.589 1233.5,336"
       id="polyline1080"
       stroke-linejoin="miter"
       stroke-linecap="butt"
       stroke-width="1"
       stroke="#004c27"
       fill="none" />
    <polyline
       points="573.585,472.462 512.864,382.164 633.514,373.303 573.585,472.462"
       id="polyline1082"
       stroke-linejoin="miter"
       stroke-linecap="butt"
       stroke-width="1"
       stroke="#004c27"
       fill="none" />
    <polyline
       points="693.5,472.077 573.585,472.462 633.514,373.303 693.5,472.077"
       id="polyline1084"
       stroke-linejoin="miter"
       stroke-linecap="butt"
       stroke-width="1"
       stroke="#004c27"
       fill="none" />
    <polyline
       points="753.5,576 633.5,576 693.5,472.077 753.5,576"
       id="polyline1088"
       stroke-linejoin="miter"
       stroke-linecap="butt"
       stroke-width="1"
       stroke="#004c27"
       fill="none" />
    <polyline
       points="273.5,336 273.5,216 368.385,268.411 273.5,336"
       id="polyline1092"
       stroke-linejoin="miter"
       stroke-linecap="butt"
       stroke-width="1"
       stroke="#004c27"
       fill="none" />
    <polyline
       points="633.5,576 573.585,472.462 693.5,472.077 633.5,576"
       id="polyline1094"
       stroke-linejoin="miter"
       stroke-linecap="butt"
       stroke-width="1"
       stroke="#004c27"
       fill="none" />
    <polyline
       points="454.009,474.387 512.864,382.164 573.585,472.462 454.009,474.387"
       id="polyline1096"
       stroke-linejoin="miter"
       stroke-linecap="butt"
       stroke-width="1"
       stroke="#004c27"
       fill="none" />
    <polyline
       points="513.5,576 454.009,474.387 573.585,472.462 513.5,576"
       id="polyline1100"
       stroke-linejoin="miter"
       stroke-linecap="butt"
       stroke-width="1"
       stroke="#004c27"
       fill="none" />
    <polyline
       points="873.5,576 753.5,576 807.7,474.855 873.5,576"
       id="polyline1102"
       stroke-linejoin="miter"
       stroke-linecap="butt"
       stroke-width="1"
       stroke="#004c27"
       fill="none" />
    <polyline
       points="993.5,96 1113.5,96 1052.99,197.613 993.5,96 1052.99,197.613 933.5,199.923 993.5,96"
       id="polyline1104"
       stroke-linejoin="miter"
       stroke-linecap="butt"
       stroke-width="1"
       stroke="#004c27"
       fill="none" />
    <polyline
       points="873.5,96 933.5,199.923 801.023,202.058 873.5,96"
       id="polyline1106"
       stroke-linejoin="miter"
       stroke-linecap="butt"
       stroke-width="1"
       stroke="#004c27"
       fill="none" />
    <polyline
       points="633.5,576 513.5,576 573.585,472.462 633.5,576"
       id="polyline1108"
       stroke-linejoin="miter"
       stroke-linecap="butt"
       stroke-width="1"
       stroke="#004c27"
       fill="none" />
    <polyline
       points="753.5,96 873.5,96 801.023,202.058 753.5,96"
       id="polyline1110"
       stroke-linejoin="miter"
       stroke-linecap="butt"
       stroke-width="1"
       stroke="#004c27"
       fill="none" />
    <polyline
       points="513.5,576 393.5,576 454.009,474.387 513.5,576"
       id="polyline1112"
       stroke-linejoin="miter"
       stroke-linecap="butt"
       stroke-width="1"
       stroke="#004c27"
       fill="none" />
    <polyline
       points="693.5,472.077 633.514,373.303 750.898,370.096 693.5,472.077"
       id="polyline1114"
       stroke-linejoin="miter"
       stroke-linecap="butt"
       stroke-width="1"
       stroke="#004c27"
       fill="none" />
    <polyline
       points="873.5,576 807.7,474.855 933.967,467.945 873.5,576"
       id="polyline1116"
       stroke-linejoin="miter"
       stroke-linecap="butt"
       stroke-width="1"
       stroke="#004c27"
       fill="none" />
    <polyline
       points="753.5,576 693.5,472.077 807.7,474.855 753.5,576"
       id="polyline1118"
       stroke-linejoin="miter"
       stroke-linecap="butt"
       stroke-width="1"
       stroke="#004c27"
       fill="none" />
    <polyline
       points="873.5,96 993.5,96 933.5,199.923 873.5,96"
       id="polyline1120"
       stroke-linejoin="miter"
       stroke-linecap="butt"
       stroke-width="1"
       stroke="#004c27"
       fill="none" />
    <polyline
       points="513.5,96 633.5,96 573.5,199.923 513.5,96"
       id="polyline1124"
       stroke-linejoin="miter"
       stroke-linecap="butt"
       stroke-width="1"
       stroke="#004c27"
       fill="none" />
    <polyline
       points="993.5,576 873.5,576 933.967,467.945 993.5,576"
       id="polyline1126"
       stroke-linejoin="miter"
       stroke-linecap="butt"
       stroke-width="1"
       stroke="#004c27"
       fill="none" />
    <polyline
       points="693.5,472.077 750.898,370.096 807.7,474.855 693.5,472.077"
       id="polyline1128"
       style="stroke-width:2.51338583;stroke-miterlimit:4;stroke-dasharray:none;stroke:#e84c27;stroke-opacity:1"
       stroke-linejoin="miter"
       stroke-linecap="butt"
       stroke-width="1"
       stroke="#004c27"
       fill="none" />
    <polyline
       points="1233.5,216 1233.5,336 1126.13,284.7 1233.5,216"
       id="polyline1140"
       stroke-linejoin="miter"
       stroke-linecap="butt"
       stroke-width="1"
       stroke="#004c27"
       fill="none" />
    <polyline
       points="1113.5,576 993.5,576 1060.61,482.618 1113.5,576"
       id="polyline1142"
       stroke-linejoin="miter"
       stroke-linecap="butt"
       stroke-width="1"
       stroke="#004c27"
       fill="none" />
    <polyline
       points="273.5,456 273.5,336 380.875,387.367 273.5,456"
       id="polyline1144"
       stroke-linejoin="miter"
       stroke-linecap="butt"
       stroke-width="1"
       stroke="#004c27"
       fill="none" />
    <polyline
       points="393.5,96 513.5,96 446.464,188.694 393.5,96"
       id="polyline1146"
       stroke-linejoin="miter"
       stroke-linecap="butt"
       stroke-width="1"
       stroke="#004c27"
       fill="none" />
    <polyline
       points="1233.5,336 1138.62,403.589 1126.13,284.7 1233.5,336"
       id="polyline1148"
       stroke-linejoin="miter"
       stroke-linecap="butt"
       stroke-width="1"
       stroke="#004c27"
       fill="none" />
    <polyline
       points="993.5,576 933.967,467.945 1060.61,482.618 993.5,576"
       id="polyline1150"
       stroke-linejoin="miter"
       stroke-linecap="butt"
       stroke-width="1"
       stroke="#004c27"
       fill="none" />
    <polyline
       points="273.5,336 368.385,268.411 380.875,387.367 273.5,336"
       id="polyline1152"
       stroke-linejoin="miter"
       stroke-linecap="butt"
       stroke-width="1"
       stroke="#004c27"
       fill="none" />
    <polyline
       points="513.5,96 573.5,199.923 446.464,188.694 513.5,96"
       id="polyline1154"
       stroke-linejoin="miter"
       stroke-linecap="butt"
       stroke-width="1"
       stroke="#004c27"
       fill="none" />
    <polyline
       points="753.5,96 801.023,202.058 693.5,169.416 753.5,96"
       id="polyline1158"
       stroke-linejoin="miter"
       stroke-linecap="butt"
       stroke-width="1"
       stroke="#004c27"
       fill="none" />
    <polyline
       points="633.5,96 693.5,169.416 573.5,199.923 633.5,96"
       id="polyline1160"
       stroke-linejoin="miter"
       stroke-linecap="butt"
       stroke-width="1"
       stroke="#004c27"
       fill="none" />
    <polyline
       points="1233.5,576 1113.5,576 1145.65,488.154 1233.5,576"
       id="polyline1162"
       stroke-linejoin="miter"
       stroke-linecap="butt"
       stroke-width="1"
       stroke="#004c27"
       fill="none" />
    <polyline
       points="1233.5,96 1233.5,216 1145.65,183.846 1233.5,96"
       id="polyline1164"
       stroke-linejoin="miter"
       stroke-linecap="butt"
       stroke-width="1"
       stroke="#004c27"
       fill="none" />
    <polyline
       points="273.5,576 361.346,488.154 393.5,576 273.5,576 273.5,456 361.346,488.154 273.5,576"
       id="polyline1166"
       stroke-linejoin="miter"
       stroke-linecap="butt"
       stroke-width="1"
       stroke="#004c27"
       fill="none" />
    <polyline
       points="1233.5,96 1145.65,183.846 1113.5,96 1233.5,96"
       id="polyline1168"
       stroke-linejoin="miter"
       stroke-linecap="butt"
       stroke-width="1"
       stroke="#004c27"
       fill="none" />
    <polyline
       points="273.5,96 393.5,96 361.346,183.846 273.5,96 361.346,183.846 273.5,216 273.5,96"
       id="polyline1170"
       stroke-linejoin="miter"
       stroke-linecap="butt"
       stroke-width="1"
       stroke="#004c27"
       fill="none" />
    <polyline
       points="1233.5,576 1145.65,488.154 1233.5,456 1233.5,576"
       id="polyline1172"
       stroke-linejoin="miter"
       stroke-linecap="butt"
       stroke-width="1"
       stroke="#004c27"
       fill="none" />
    <polyline
       points="1233.5,216 1126.13,284.7 1145.65,183.846 1233.5,216"
       id="polyline1176"
       stroke-linejoin="miter"
       stroke-linecap="butt"
       stroke-width="1"
       stroke="#004c27"
       fill="none" />
    <polyline
       points="273.5,456 380.875,387.367 361.346,488.154 273.5,456"
       id="polyline1178"
       stroke-linejoin="miter"
       stroke-linecap="butt"
       stroke-width="1"
       stroke="#004c27"
       fill="none" />
    <polyline
       points="1113.5,576 1060.61,482.618 1145.65,488.154 1113.5,576"
       id="polyline1180"
       stroke-linejoin="miter"
       stroke-linecap="butt"
       stroke-width="1"
       stroke="#004c27"
       fill="none" />
    <polyline
       points="393.5,96 446.464,188.694 361.346,183.846 393.5,96"
       id="polyline1182"
       stroke-linejoin="miter"
       stroke-linecap="butt"
       stroke-width="1"
       stroke="#004c27"
       fill="none" />
    <polyline
       points="633.5,96 753.5,96 693.5,169.416 633.5,96"
       id="polyline1188"
       stroke-linejoin="miter"
       stroke-linecap="butt"
       stroke-width="1"
       stroke="#004c27"
       fill="none" />
    <polyline
       points="1233.5,456 1145.65,488.154 1138.62,403.589 1233.5,456"
       id="polyline1190"
       stroke-linejoin="miter"
       stroke-linecap="butt"
       stroke-width="1"
       stroke="#004c27"
       fill="none" />
    <polyline
       points="1113.5,96 1145.65,183.846 1052.99,197.613 1113.5,96"
       id="polyline1192"
       stroke-linejoin="miter"
       stroke-linecap="butt"
       stroke-width="1"
       stroke="#004c27"
       fill="none" />
    <polyline
       points="393.5,576 361.346,488.154 454.009,474.387 393.5,576"
       id="polyline1194"
       stroke-linejoin="miter"
       stroke-linecap="butt"
       stroke-width="1"
       stroke="#004c27"
       fill="none" />
    <polyline
       points="273.5,216 361.346,183.846 368.385,268.411 273.5,216"
       id="polyline1196"
       stroke-linejoin="miter"
       stroke-linecap="butt"
       stroke-width="1"
       stroke="#004c27"
       fill="none" />
    <polyline
       points="1138.62,403.589 1145.65,488.154 1060.61,482.618 1138.62,403.589"
       id="polyline1204"
       stroke-linejoin="miter"
       stroke-linecap="butt"
       stroke-width="1"
       stroke="#004c27"
       fill="none" />
    <polyline
       points="454.009,474.387 361.346,488.154 380.875,387.367 454.009,474.387"
       id="polyline1210"
       stroke-linejoin="miter"
       stroke-linecap="butt"
       stroke-width="1"
       stroke="#004c27"
       fill="none" />
    <polyline
       points="1447,632 1447,632"
       id="polyline1236"
       stroke-linejoin="miter"
       stroke-linecap="butt"
       stroke-width="1"
       stroke="#000000"
       fill="none" />
  </g>
</svg>
